<svg id="圖層_1" data-name="圖層 1" xmlns="http://www.w3.org/2000/svg" viewBox="0 0 930.04 129.23"><defs><style>.cls-1{fill:#ed6d26;}</style></defs><title>KC</title><path class="cls-1" d="M28.14,38.33v51.2l48.27-51.2h33.91L62.05,87.11,115,161.85H80.91l-37.2-55.54L28.14,122.06v39.79H1V38.33Z" transform="translate(-0.98 -35.38)"/><path class="cls-1" d="M235.57,38.33l46.19,123.52h-28.2l-9.34-27.51H198l-9.68,27.51H161L207.71,38.33Zm1.55,75.77L221.55,68.77h-.34L205.12,114.1Z" transform="translate(-0.98 -35.38)"/><path class="cls-1" d="M361.34,131.4a19.59,19.59,0,0,0,6,7,25.66,25.66,0,0,0,8.74,4,41,41,0,0,0,10.38,1.3,54.7,54.7,0,0,0,7.79-.6,27.11,27.11,0,0,0,7.78-2.34,17,17,0,0,0,6.06-4.76,11.93,11.93,0,0,0,2.42-7.69,10.87,10.87,0,0,0-3.2-8.14,25.64,25.64,0,0,0-8.39-5.19,84.77,84.77,0,0,0-11.77-3.63q-6.57-1.56-13.32-3.46a116.11,116.11,0,0,1-13.49-4.24,46.27,46.27,0,0,1-11.77-6.48,30.7,30.7,0,0,1-8.39-10,30.27,30.27,0,0,1-3.2-14.45A32.35,32.35,0,0,1,341,56.23a36.83,36.83,0,0,1,10.64-11.68,46.41,46.41,0,0,1,14.88-6.92,63.62,63.62,0,0,1,16.6-2.25,78.68,78.68,0,0,1,18.6,2.17,46.49,46.49,0,0,1,15.83,7,35.65,35.65,0,0,1,11,12.37q4.05,7.53,4.06,18.25H406.32A22,22,0,0,0,404,66a15.24,15.24,0,0,0-5.28-5.71,22.05,22.05,0,0,0-7.52-2.94,46.11,46.11,0,0,0-9.26-.87,31.88,31.88,0,0,0-6.57.69,17.87,17.87,0,0,0-6,2.42A15,15,0,0,0,365,63.93a11.55,11.55,0,0,0-1.73,6.57,11.14,11.14,0,0,0,1.38,5.89q1.38,2.25,5.45,4.15a68.68,68.68,0,0,0,11.25,3.8q7.17,1.91,18.77,4.85,3.45.69,9.6,2.51a46.17,46.17,0,0,1,12.2,5.79,37,37,0,0,1,10.46,10.64q4.41,6.66,4.41,17a37.82,37.82,0,0,1-3.28,15.75,34.3,34.3,0,0,1-9.78,12.54,46.92,46.92,0,0,1-16.09,8.21,76.05,76.05,0,0,1-22.23,3,78.24,78.24,0,0,1-19.81-2.51,49.85,49.85,0,0,1-16.95-7.87,39,39,0,0,1-11.68-13.67q-4.32-8.31-4.15-19.72h26.3A22.63,22.63,0,0,0,361.34,131.4Z" transform="translate(-0.98 -35.38)"/><path class="cls-1" d="M556.65,38.33q11.6,0,19.72,3.37a37,37,0,0,1,13.24,8.91,34.29,34.29,0,0,1,7.44,12.63,47.28,47.28,0,0,1,0,29.32,34.17,34.17,0,0,1-7.44,12.72,37,37,0,0,1-13.24,8.91q-8.13,3.38-19.72,3.37H528.11v44.29H500.94V38.33Zm-7.44,58.12a57.1,57.1,0,0,0,9-.69,20.84,20.84,0,0,0,7.61-2.68,14.62,14.62,0,0,0,5.28-5.62,19.86,19.86,0,0,0,2-9.52,19.81,19.81,0,0,0-2-9.51,14.62,14.62,0,0,0-5.28-5.62,21,21,0,0,0-7.61-2.69,57.1,57.1,0,0,0-9-.69h-21.1v37Z" transform="translate(-0.98 -35.38)"/><path class="cls-1" d="M756.81,38.33V61.16H691.59V87.63h59.86v21.11H691.59V139h66.6v22.84H664.43V38.33Z" transform="translate(-0.98 -35.38)"/><path class="cls-1" d="M891.23,38.33a39.77,39.77,0,0,1,15,2.68,34.59,34.59,0,0,1,11.41,7.35,31.91,31.91,0,0,1,7.27,10.81,34.75,34.75,0,0,1,2.51,13.24q0,10.89-4.59,18.85t-15,12.11v.35a20.83,20.83,0,0,1,8.3,4.24,23.55,23.55,0,0,1,5.37,6.75,31.23,31.23,0,0,1,3,8.56,74.89,74.89,0,0,1,1.3,9.34q.17,2.94.35,6.92c.11,2.66.31,5.36.6,8.13a53.93,53.93,0,0,0,1.39,7.87,18.1,18.1,0,0,0,2.85,6.32H903.86a48,48,0,0,1-2.77-14c-.35-5.41-.86-10.61-1.56-15.57q-1.38-9.67-5.88-14.18t-14.7-4.5H851.79v48.27H824.62V38.33ZM881.54,94.2q9.35,0,14-4.15t4.67-13.49q0-9-4.67-13.06t-14-4.07H851.79V94.2Z" transform="translate(-0.98 -35.38)"/></svg>