<svg id="圖層_1" data-name="圖層 1" xmlns="http://www.w3.org/2000/svg" viewBox="0 0 200 58.57"><defs><style>.cls-1{fill:#ed6d26;}</style></defs><title>Kasper</title><path class="cls-1" d="M113.69,47.55c0,.27,0,.39,0,.52,0,3.09,0,6.18,0,9.27a11.9,11.9,0,0,0,.1,1.33,2.47,2.47,0,0,0,1.56,2.09,21.4,21.4,0,0,0,2.63.89c.48.14.65.34.61.84s0,1.18,0,1.79H102V61.85l1.84-.63a2.93,2.93,0,0,0,2-2.85c0-.59.06-1.19.06-1.78q0-14.16,0-28.31a20,20,0,0,0-.18-2.56,3,3,0,0,0-1.58-2.3,16.77,16.77,0,0,0-2-.91.51.51,0,0,1-.4-.56c0-.66,0-1.33,0-2a3.62,3.62,0,0,1,.4-.05l10.22-.08c.8,0,.82,0,.77.82-.12,1.78-.25,3.56-.37,5.34,0,.18,0,.37,0,.57.36.19.43-.05.52-.31a10.48,10.48,0,0,1,2.36-4,9.41,9.41,0,0,1,5.52-2.8,11.59,11.59,0,0,1,9.36,2.24,12.61,12.61,0,0,1,4.12,6.05A21.51,21.51,0,0,1,134,43.48a12.35,12.35,0,0,1-9.93,7.86,11.55,11.55,0,0,1-7.58-1.14A8.57,8.57,0,0,1,113.69,47.55Zm13.84-12.18c0-.61,0-1.23,0-1.84a18.06,18.06,0,0,0-1.13-5.82,6.28,6.28,0,0,0-3.47-3.87,6,6,0,0,0-6.91,2.1,11.66,11.66,0,0,0-2.31,7c-.09,2.32,0,4.65,0,7a9.61,9.61,0,0,0,1.09,4.29,6.39,6.39,0,0,0,8.83,2.49,7.63,7.63,0,0,0,2.8-3.79A20.22,20.22,0,0,0,127.53,35.37Z" transform="translate(0 -5.72)"/><path class="cls-1" d="M19,20H34.82c0,.78,0,1.56,0,2.34a.49.49,0,0,1-.28.32,24.82,24.82,0,0,0-8.48,5.13c-1.25,1.06-2.52,2.1-3.78,3.14l-.64.56,4.93,6.87q2.85,4,5.72,7.91a5.69,5.69,0,0,0,3.06,2.12.71.71,0,0,1,.6.87c0,.58,0,1.18,0,1.78H20.16c0-.72,0-1.46,0-2.19,0-.13.19-.29.33-.35.39-.18.81-.29,1.19-.47a1.64,1.64,0,0,0,.9-2.51A8.29,8.29,0,0,0,21.74,44q-2.79-3.8-5.6-7.58a2.6,2.6,0,0,0-.24-.28c-1.16,1-2.32,2.06-3.45,3.1a.71.71,0,0,0-.16.45c0,1.78,0,3.57.1,5.35s.75,2.58,2.49,3.12c.41.13.82.22,1.28.35V51H.57c0-.72,0-1.47,0-2.23,0-.1.18-.25.31-.29.52-.2,1.06-.36,1.58-.55a2.92,2.92,0,0,0,2-2.6,16.08,16.08,0,0,0,.11-1.84q0-14.73,0-29.48a15.25,15.25,0,0,0-.22-2.43A3.24,3.24,0,0,0,2.18,8.94C1.48,8.67.74,8.47,0,8.23V5.72H11.59c.83,0,.9.09.89.94q-.09,14.1-.19,28.2c0,.07,0,.14,0,.33l.63-.52q3.75-3.3,7.49-6.61a17.31,17.31,0,0,0,1.43-1.41,4.18,4.18,0,0,0,.73-1.17,1.56,1.56,0,0,0-.81-2.11,7.34,7.34,0,0,0-1.35-.51c-.46-.14-.94-.22-1.45-.33Z" transform="translate(0 -5.72)"/><path class="cls-1" d="M69.48,47.84a7.3,7.3,0,0,1-6.41,3.59A7.62,7.62,0,0,1,60,50.84a4.65,4.65,0,0,1-2.8-3.57c0-.15,0-.3-.09-.44a2.89,2.89,0,0,0-.12-.36,2.61,2.61,0,0,0-.34.37,9.34,9.34,0,0,1-7.28,4.56,10.81,10.81,0,0,1-6.7-1.14,6.86,6.86,0,0,1-3.57-5.53c-.55-4.49,1.77-7.24,5.29-8.85a28.08,28.08,0,0,1,8.16-2.13c1.29-.17,2.58-.3,3.87-.46.14,0,.37-.19.37-.28a54.94,54.94,0,0,0-.28-6.68c-.37-2.49-2.08-3.78-4.62-3.95a7.13,7.13,0,0,0-3.65.54A4.39,4.39,0,0,0,46.83,24a1.1,1.1,0,0,0,.2,1.67,3.5,3.5,0,0,1,1.26,2.09,3.63,3.63,0,0,1-3.15,4.19,6.32,6.32,0,0,1-2,0,3.63,3.63,0,0,1-3-3.57c-.2-3,1.29-5.1,3.64-6.71a14.33,14.33,0,0,1,6.84-2.29,16.75,16.75,0,0,1,7.37.78,9.28,9.28,0,0,1,6.39,8,17.33,17.33,0,0,1,.12,2.28c0,4.84,0,9.68,0,14.52a6.11,6.11,0,0,0,.08,1,1.36,1.36,0,0,0,2,1.14,10.42,10.42,0,0,0,1.58-1l.62.82ZM56.79,35.78c-1.81.4-3.5.72-5.17,1.15a7,7,0,0,0-3.39,1.83A5.46,5.46,0,0,0,47.09,44a3.65,3.65,0,0,0,3.32,3.12A6,6,0,0,0,56,44.68a3.25,3.25,0,0,0,.84-2.38c-.07-1.91,0-3.83,0-5.74Z" transform="translate(0 -5.72)"/><path class="cls-1" d="M169.36,35.42H148.92c.05,1,.08,1.93.17,2.87A15.3,15.3,0,0,0,150.2,43a6.76,6.76,0,0,0,5.44,4.25,8.65,8.65,0,0,0,7.43-1.84,8.78,8.78,0,0,0,2.78-4.91c0-.16.22-.41.35-.42.9,0,1.81,0,2.76,0A12.73,12.73,0,0,1,168,44a11.59,11.59,0,0,1-10.18,7.38,18.6,18.6,0,0,1-8-.83,12,12,0,0,1-7.8-7.51,20,20,0,0,1,.66-16.34,13,13,0,0,1,11-7.4A14.55,14.55,0,0,1,162,20.73a12.82,12.82,0,0,1,6.83,9.34C169.17,31.79,169.18,33.57,169.36,35.42Zm-8.65-3.12c0-.66-.07-1.29-.12-1.92a16.09,16.09,0,0,0-1.09-4.92c-1.66-3.94-6.64-3.34-8.34-1S149.23,29.5,149,32.3Z" transform="translate(0 -5.72)"/><path class="cls-1" d="M95.84,19.34c.16,3.45.32,6.81.48,10.26-.8,0-1.64,0-2.49,0-.13,0-.28-.25-.37-.42a16.28,16.28,0,0,0-3-4.43,8,8,0,0,0-7.82-2.13,3.54,3.54,0,0,0-2.31,5.61,4.66,4.66,0,0,0,1.85,1.47c1.63.7,3.32,1.27,5,1.83a25.19,25.19,0,0,1,6.71,2.91A8,8,0,0,1,97.39,41a9.05,9.05,0,0,1-2.84,7.35,12,12,0,0,1-6.43,3,15.29,15.29,0,0,1-9.5-1.36l-.45-.21a1.49,1.49,0,0,0-2.31,1.13c-.09.35-.2.46-.54.45-.63,0-1.26,0-1.81,0l-.39-11.5c.78,0,1.63,0,2.47,0,.14,0,.29.25.39.41,1,1.58,1.93,3.22,3,4.73a7.86,7.86,0,0,0,4.9,3.27A8.38,8.38,0,0,0,88,48a3.92,3.92,0,0,0,3-3.16,4.2,4.2,0,0,0-1.67-4.43,15.9,15.9,0,0,0-4.56-2c-2-.66-4-1.25-5.94-2a8.39,8.39,0,0,1-4.6-4.19c-1.4-3.05-1.34-7.43,1.7-10.12a11.42,11.42,0,0,1,5.82-2.62,16,16,0,0,1,8.75,1,8.75,8.75,0,0,0,1.16.38c1,.27,1.53,0,1.78-1,.08-.34.21-.45.55-.44C94.64,19.36,95.29,19.34,95.84,19.34Z" transform="translate(0 -5.72)"/><path class="cls-1" d="M185,27.87a2.13,2.13,0,0,0,.29-.47,12.62,12.62,0,0,1,2.8-5.39,8.09,8.09,0,0,1,8.47-2.46A4.66,4.66,0,0,1,200,24.66a4.74,4.74,0,0,1-1.92,3.73,4,4,0,0,1-6.24-2.12,5.91,5.91,0,0,1-.08-1.33c0-.4-.18-.67-.55-.58a4.39,4.39,0,0,0-1.62.61,9.26,9.26,0,0,0-2.94,4.58,17.4,17.4,0,0,0-1,5.9c0,3,0,5.92,0,8.87A3,3,0,0,0,188,47.6c.95.33,1.92.59,2.89.83.34.09.45.23.43.57,0,.66,0,1.33,0,2H173.78c0-.72,0-1.46,0-2.2,0-.11.19-.28.33-.33.61-.23,1.24-.41,1.83-.66a2.65,2.65,0,0,0,1.72-2.4c0-.6.1-1.19.1-1.78q0-7.8,0-15.58a17.39,17.39,0,0,0-.21-2.39,3.2,3.2,0,0,0-2-2.54l-.83-.32c-1.05-.35-1.05-.35-1.05-1.49V19.92a3.71,3.71,0,0,1,.44-.05l10.28-.08c.8,0,.83,0,.79.81l-.33,6.57c0,.21,0,.41,0,.61Z" transform="translate(0 -5.72)"/></svg>