<?xml version="1.0" encoding="utf-8"?>
<!-- Generator: Adobe Illustrator 22.0.1, SVG Export Plug-In . SVG Version: 6.00 Build 0)  -->
<svg version="1.1" id="圖層_1" xmlns="http://www.w3.org/2000/svg" xmlns:xlink="http://www.w3.org/1999/xlink" x="0px" y="0px"
	 viewBox="0 0 200 58.6" style="enable-background:new 0 0 200 58.6;" xml:space="preserve">
<style type="text/css">
	.st0{fill:#ED6D26;}
</style>
<title>Kasper</title>
<g>
	<path class="st0" d="M33.2,46.8H18.4v-1.3c0.6-0.1,1.2-0.2,1.8-0.3c0.8-0.2,1.1-0.5,1.1-0.9c0-0.3-0.5-1.2-1.5-2.8l-5.7-8.6l-2.4,2
		v6.8c0,1.4,0.2,2.3,0.7,2.8c0.5,0.5,1.4,0.8,2.9,1v1.3H0v-1.3c2.4-0.2,3.6-1.5,3.6-3.9V9.5c0-1.3-0.8-2.2-2.3-2.5v-1l10.4-2.2v28
		l8.3-8c0.9-0.8,1.3-1.6,1.3-2.3c0-1.2-1.2-1.9-3.6-2.1v-1.2h13.2v1.2c-2.8,0.2-4.7,1-5.8,2.3c-2,2.4-3.8,4.3-5.3,5.8l11.3,16.9
		c0.6,0.8,1.3,1.2,2.1,1.2V46.8z"/>
	<path class="st0" d="M68.7,44c-2,2.4-4.5,3.6-7.4,3.6c-1.8,0-3.1-0.5-3.8-1.4c-0.5-0.6-0.8-1.6-0.9-3c-2.9,2.9-6.4,4.4-10.5,4.4
		c-4.8,0-7.2-2.3-7.2-7c0-3.4,1.8-6.1,5.4-8c2.4-1.4,6.6-2.7,12.3-3.8v-4.6c0-3.8-2-5.6-5.9-5.6c-1.1,0-2.1,0.3-3.2,0.8
		c-1,0.6-1.5,1.1-1.5,1.6c0,0.3,0.4,0.9,1.2,1.7c0.8,0.8,1.2,1.6,1.2,2.5c0,1-0.4,1.8-1.1,2.5c-0.7,0.6-1.6,0.9-2.7,0.9
		c-3,0-4.5-1.4-4.5-4.2c0-2.1,1.1-3.9,3.3-5.4c2.2-1.5,5.1-2.3,8.7-2.3c3.6,0,6.5,0.7,8.8,2.1c2.4,1.5,3.7,3.6,3.7,6.4v17
		c0,1,0.5,1.5,1.6,1.5c0.5,0,1-0.3,1.5-1L68.7,44z M56.5,40.5v-9.6c-6,2.1-9,4.9-9,8.4c0,2.6,1.1,3.9,3.3,3.9c1,0,2.1-0.3,3.4-1
		C55.2,41.7,56,41.1,56.5,40.5z"/>
	<path class="st0" d="M96.2,38.7c0,3.4-1,5.8-3.1,7.2c-1.7,1.1-4.1,1.7-7.4,1.7c-1.2,0-3-0.3-5.2-0.9l-3.3-1c-0.6,0-1.1,0.6-1.7,1.8
		h-1.4V37.3h1.5c0.3,1.8,1.1,3.4,2.3,5c1.8,2.3,4.2,3.4,7.1,3.4c1.5,0,2.7-0.5,3.6-1.6c0.9-1,1.3-2,1.3-3.2c0-1.5-1.3-3-3.8-4.5
		c-2.4-1.2-4.8-2.4-7.3-3.7c-1-0.6-2-1.4-2.9-2.5c-1.2-1.4-1.8-2.9-1.8-4.4c0-5.8,3.5-8.6,10.5-8.6c1.1,0,2.5,0.2,4.3,0.7
		c1.7,0.5,2.7,0.7,3,0.7c0.7,0,1.2-0.4,1.5-1.3h1.2v9h-1.4c-0.6-2.1-1.7-3.9-3.3-5.2c-1.6-1.3-3.3-2-5.1-2c-1.2,0-2.2,0.4-3.1,1.2
		c-0.9,0.7-1.4,1.6-1.4,2.6c0,1.7,1.4,3.3,4.1,4.8c2.5,1.4,5,2.8,7.5,4.1C94.8,33.8,96.2,36,96.2,38.7z"/>
	<path class="st0" d="M134.1,31.2c0,4.9-1.2,8.9-3.6,12c-2.3,2.9-5,4.4-8.3,4.4c-3.1,0-5.9-1.3-8.3-3.8v5.5c0,1.6,0.4,2.7,1.2,3.3
		c0.6,0.5,1.8,0.8,3.7,1.1v1.1h-17v-1.4c2.6-0.4,3.9-1.8,3.9-4.2V22.8c0-1.2-0.7-2-2.2-2.2v-1.1l10.3-2.2v5.1h0.1
		c1.6-3.4,4.3-5.1,8.3-5.1c3,0,5.6,1.1,7.9,3.2C132.8,23,134.1,26.6,134.1,31.2z M125.3,32.2c0-7.7-1.9-11.5-5.7-11.5
		c-1.2,0-2.5,0.6-3.9,1.9c-1.2,1.1-1.8,1.9-1.8,2.5v15.4c1.4,2.6,3.1,3.9,5.2,3.9c2.3,0,3.9-1.6,5-4.7
		C124.9,37.4,125.3,34.9,125.3,32.2z"/>
	<path class="st0" d="M166.6,31.3h-17.9c0,8,2.9,12,8.7,12c2.7,0,5.2-1.4,7.4-4.3l1.3,0.8c-1.5,3.2-3.2,5.4-5.1,6.5
		c-1.5,0.9-3.8,1.3-6.8,1.3c-3.7,0-6.8-1.2-9.4-3.7c-2.8-2.7-4.2-6.4-4.2-11c0-4.9,0.9-8.6,2.8-11.1c2.1-3,5.7-4.5,10.7-4.5
		c8.4,0,12.6,4,12.6,12.1C166.6,30,166.6,30.6,166.6,31.3z M159.4,29.3c0-2.7-0.3-4.9-1-6.6c-0.9-2.2-2.3-3.3-4.1-3.3
		c-1.5,0-2.8,0.8-3.8,2.3c-1.2,1.8-1.8,4.3-1.8,7.6H159.4z"/>
	<path class="st0" d="M200,21.8c0,2.8-1.3,4.2-3.9,4.2c-1,0-2-0.6-3-1.8c-1-1.2-1.7-1.7-2.1-1.7c-1.5,0-2.8,0.5-3.9,1.5
		c-1.3,1.1-1.9,2.6-1.9,4.3v13c0,2.7,1.7,4.2,5.2,4.3v1.3h-17.1v-1.3c1.4-0.3,2.3-0.6,2.8-1c0.7-0.6,1.1-1.6,1.1-3V22.8
		c0-1.2-0.7-2-2.2-2.2v-1.1l10.3-2.2v5.6h0.1c0.9-1.2,2.1-2.4,3.8-3.5c2.1-1.4,4-2.1,5.8-2.1C198.3,17.3,200,18.8,200,21.8z"/>
</g>
</svg>
