<svg id="圖層_1" data-name="圖層 1" xmlns="http://www.w3.org/2000/svg" viewBox="0 0 932 157.48"><defs><style>.cls-1{fill:#ed6d26;}</style></defs><title>Kasper</title><path class="cls-1" d="M33.1,24.84V87.25L91.92,24.84h41.31L74.42,84.29l64.51,91.08H97.4L52.07,107.69l-19,19.19v48.49H0V24.84Z" transform="translate(0 -21.26)"/><path class="cls-1" d="M245.6,24.84l56.28,150.53H267.52l-11.38-33.52H199.85L188,175.37H154.73L211.65,24.84Zm1.89,92.34L228.52,62h-.42l-19.61,55.23Z" transform="translate(0 -21.26)"/><path class="cls-1" d="M358.59,138.26a24,24,0,0,0,7.27,8.54,31.35,31.35,0,0,0,10.65,4.85,50.46,50.46,0,0,0,12.65,1.58,64.94,64.94,0,0,0,9.49-.74,33.08,33.08,0,0,0,9.48-2.84,20.79,20.79,0,0,0,7.38-5.8,14.54,14.54,0,0,0,2.95-9.38,13.2,13.2,0,0,0-3.9-9.91,30.86,30.86,0,0,0-10.22-6.32A101.19,101.19,0,0,0,390,113.81q-8-1.91-16.23-4.22a142.63,142.63,0,0,1-16.44-5.16A56.28,56.28,0,0,1,343,96.52,37,37,0,0,1,332.77,84.4q-3.91-7.28-3.9-17.6,0-11.59,4.95-20.14a44.93,44.93,0,0,1,13-14.23A56.67,56.67,0,0,1,364.92,24a77.36,77.36,0,0,1,20.23-2.74,95.67,95.67,0,0,1,22.67,2.64,56.82,56.82,0,0,1,19.29,8.53,43.17,43.17,0,0,1,13.38,15.08q5,9.16,5,22.24H413.4a26.66,26.66,0,0,0-2.84-11.17,18.63,18.63,0,0,0-6.43-7A27.38,27.38,0,0,0,395,48,56.77,56.77,0,0,0,383.68,47a38.85,38.85,0,0,0-8,.84,21.75,21.75,0,0,0-7.28,3A18.27,18.27,0,0,0,363,56.05a14.08,14.08,0,0,0-2.11,8,13.43,13.43,0,0,0,1.69,7.16q1.68,2.75,6.64,5.06a83.79,83.79,0,0,0,13.7,4.64q8.74,2.33,22.87,5.9,4.21.86,11.7,3.06a56.46,56.46,0,0,1,14.87,7.06,45.08,45.08,0,0,1,12.75,13q5.37,8.11,5.38,20.76a46,46,0,0,1-4,19.19,41.63,41.63,0,0,1-11.91,15.28,57.27,57.27,0,0,1-19.61,10,93,93,0,0,1-27.09,3.58,95,95,0,0,1-24.13-3.06,60.48,60.48,0,0,1-20.66-9.59,47.25,47.25,0,0,1-14.23-16.65q-5.28-10.12-5.06-24h32A27.56,27.56,0,0,0,358.59,138.26Z" transform="translate(0 -21.26)"/><path class="cls-1" d="M556.33,24.84q14.13,0,24,4.12a45,45,0,0,1,16.13,10.85,41.74,41.74,0,0,1,9.07,15.39,57.61,57.61,0,0,1,0,35.73,41.54,41.54,0,0,1-9.07,15.5,44.94,44.94,0,0,1-16.13,10.86q-9.9,4.11-24,4.11H521.55v54h-33.1V24.84Zm-9.06,70.84a69.65,69.65,0,0,0,11-.84,25.58,25.58,0,0,0,9.27-3.27,17.79,17.79,0,0,0,6.43-6.85q2.43-4.44,2.43-11.6t-2.43-11.59a17.82,17.82,0,0,0-6.43-6.86,25.57,25.57,0,0,0-9.27-3.26,69.64,69.64,0,0,0-11-.85H521.55V95.68Z" transform="translate(0 -21.26)"/><path class="cls-1" d="M760,24.84V52.67H680.5V84.93h72.94v25.72H680.5v36.89h81.16v27.83H647.4V24.84Z" transform="translate(0 -21.26)"/><path class="cls-1" d="M883.51,24.84a48.43,48.43,0,0,1,18.24,3.27,42.11,42.11,0,0,1,13.91,9,38.93,38.93,0,0,1,8.86,13.18,42.37,42.37,0,0,1,3.05,16.13q0,13.28-5.58,23t-18.24,14.76v.42a25.57,25.57,0,0,1,10.12,5.17,28.76,28.76,0,0,1,6.54,8.22,38.37,38.37,0,0,1,3.68,10.43,92.83,92.83,0,0,1,1.59,11.39c.13,2.39.28,5.2.42,8.43s.38,6.54.74,9.91a65.35,65.35,0,0,0,1.68,9.59,22,22,0,0,0,3.48,7.7H898.9a58.22,58.22,0,0,1-3.37-17.08q-.63-9.9-1.9-19Q892,127.51,886.46,122t-17.92-5.48H835.45v58.82h-33.1V24.84Zm-11.8,68.1q11.38,0,17.07-5.06t5.7-16.45q0-11-5.7-15.91t-17.07-5H835.45V92.94Z" transform="translate(0 -21.26)"/></svg>