<?xml version="1.0" encoding="utf-8"?>
<!-- Generator: Adobe Illustrator 22.0.1, SVG Export Plug-In . SVG Version: 6.00 Build 0)  -->
<svg version="1.1" id="圖層_1" xmlns="http://www.w3.org/2000/svg" xmlns:xlink="http://www.w3.org/1999/xlink" x="0px" y="0px"
	 viewBox="0 0 1160 200" style="enable-background:new 0 0 1160 200;" xml:space="preserve">
<style type="text/css">
	.st0{fill:#ED6D26;}
</style>
<title>KC</title>
<path class="st0" d="M62.2,61.9l47.3,71.8H74.3L42.2,84.7l-13,15.4v33.5H0V6.8h29.2v54L72,6.8h35.9L62.2,61.9z"/>
<path class="st0" d="M204.9,111v22.7H192c-10.7,0-17.8-3.4-20.5-10.5c-6,8.2-15.4,12.7-27.6,12.7c-9.8,0-17.8-2.5-23.8-7.6
	c-5.8-4.9-9-12-8.9-19.6c0-15.8,9.8-25.7,28.1-28.8l23.8-4c3.6-0.7,5.1-2.4,5.1-5.8c0-6-4.9-10.2-13-10.2c-8.7,0-14,4.2-15.4,12
	l-25.9-2.7c1.3-8.9,5.6-16,13.2-21.6s17.4-8.5,29.2-8.5c24.7,0,39,13.6,39,34.8v30.4c0,4.9,2,6.7,6.3,6.7L204.9,111z M149.9,115.2
	c10.9,0,18.9-8,18.9-18.8v-3.4l-19.6,2.9c-7.2,1.3-10.9,4.2-10.9,10C138.3,111.7,142.5,115.2,149.9,115.2L149.9,115.2z"/>
<path class="st0" d="M211.4,105.9l27.6-2.7c0.9,8.2,6.2,12.5,15.6,12.5c8.5,0,12.9-3.1,12.9-8.9c0-3.8-2.9-6.2-9.4-7.4l-14.9-2.7
	c-18.1-3.4-28.3-13-28.3-27.7c0-8.7,3.4-15.8,10.5-21.4s16.3-8.5,28.1-8.5c23.2,0,36.8,10.3,39.5,28.6l-25.2,2.9
	c-1.6-7.8-6.9-11.6-15.1-11.6c-7.4,0-11.8,3.1-11.8,7.6c0,4.2,2.5,6.2,9.2,7.4l16,3.1c19.4,3.6,28.6,12.7,28.6,27.4
	c0,19.4-14.9,31.4-40.2,31.4C228.4,135.9,212.8,124.2,211.4,105.9z"/>
<path class="st0" d="M394.3,52.1c7.4,8.5,11.2,20.1,11.2,34.6c0,14.7-3.8,26.5-11.4,35.5c-7.4,9.1-17.4,13.6-29.9,13.6
	c-11.1,0-20.1-3.8-26.6-11.6v43H310v-126h26.1v12.1c6.5-9.4,16.3-14.3,28.1-14.3C376.7,39,386.9,43.4,394.3,52.1z M357.7,62.1
	c-12.5,0-20.5,10-20.5,25.4c0,15.2,8.2,25.6,20.5,25.6c12.1,0,19.8-10.2,19.8-25.6C377.4,72.2,369.8,62.1,357.7,62.1L357.7,62.1z"/>
<path class="st0" d="M480.9,103.2l23.6,6c-5.3,17.4-19.9,26.6-41,26.6c-29.9,0-47.3-17.8-47.3-48.2c0-14.3,4.4-25.9,12.9-35
	C437.8,43.6,449,39,463,39c13.2,0,23.7,4.3,31.9,13s12.3,20.1,12.3,34.3v8.7H443c1.6,12.9,8.7,19.2,20.5,19.2
	C472,114.3,477.1,111.4,480.9,103.2z M443.4,77.5H480c-1.5-11.1-7.2-16.9-17.4-16.9C451.9,60.6,445.6,66.4,443.4,77.5z"/>
<path class="st0" d="M522.4,133.7V41.2h26.1v13c5.6-8.5,13.8-13,23.4-13h8.2v25.2h-9.4c-14.3,0-20.7,8.7-20.7,27.6v39.7L522.4,133.7
	z"/>
<path class="st0" d="M714.1,87.3l28.5,3.4c-2.9,14.1-9.6,25.2-20.1,33.2c-10.3,8-23.4,12-38.8,12c-19,0-34.1-6-45.3-17.8
	c-11.2-12-16.9-27.9-16.9-47.9c0-19.8,5.6-35.7,17-47.7s26.5-18,45.6-18c31.9,0,53.8,17,59.6,46.6L714.4,55
	c-4.5-16.7-14.9-25-30.3-25c-20.8,0-33,15-33,40.2s12.3,40.2,33.2,40.2C699.5,110.5,709.7,102.5,714.1,87.3z"/>
<path class="st0" d="M844.2,133.7h-27.6V78.4c0-10.3-5.3-16.1-14.7-16.1c-10.9,0-16.7,6.5-16.7,18.8v52.6h-27.6V6.8h27.6v42.6
	c6-7.1,14.3-10.3,25-10.3c21,0,33.9,13.8,33.9,35L844.2,133.7z"/>
<path class="st0" d="M952.4,111v22.7h-12.9c-10.7,0-17.8-3.4-20.5-10.5c-6,8.2-15.4,12.7-27.5,12.7c-9.8,0-17.8-2.5-23.8-7.6
	c-5.8-4.9-9-12-8.9-19.6c0-15.8,9.8-25.7,28.1-28.8l23.8-4c3.6-0.7,5.1-2.4,5.1-5.8c0-6-4.9-10.2-13.1-10.2c-8.7,0-14,4.2-15.4,12
	l-25.9-2.7c1.3-8.9,5.6-16,13.2-21.6s17.4-8.5,29.2-8.5c24.7,0,39,13.6,39,34.8v30.4c0,4.9,2,6.7,6.3,6.7L952.4,111z M897.5,115.2
	c10.9,0,18.8-8,18.8-18.8v-3.4l-19.6,2.9c-7.2,1.3-10.9,4.2-10.9,10C885.9,111.7,890.1,115.2,897.5,115.2L897.5,115.2z"/>
<path class="st0" d="M1051.8,133.7h-27.6V78.4c0-10.3-5.2-16.1-14.7-16.1c-10.9,0-16.7,6.5-16.7,18.8v52.6h-27.5V41.2h26.1v10
	c6-8,15-12.1,26.5-12.1c21,0,33.9,13.8,33.9,35L1051.8,133.7z"/>
<path class="st0" d="M1067,83.8c0-13.2,3.6-24.1,11.1-32.3c7.4-8.3,17-12.5,29.2-12.5c11.4,0,20.5,4,26.8,11.8v-9.6h25.9v86.5
	c0,26.1-16.9,41.7-46.6,41.7c-26.8,0-43.9-12.3-45.5-31.4l27.6-3.1c2,8.7,8.2,12.7,18.5,12.7c12.1,0,18.5-6.9,18.5-19.9v-10.9
	c-6,7.2-14.5,10.9-25.2,10.9C1082.6,127.7,1067,110.7,1067,83.8z M1114,104.8c11.6,0,18.8-8.3,18.8-21.4c0-12.9-7.4-21.6-18.8-21.6
	c-11.6,0-18.9,8.5-18.9,21.6C1095.1,96.7,1102.2,104.9,1114,104.8L1114,104.8z"/>
</svg>
