<svg id="圖層_1" data-name="圖層 1" xmlns="http://www.w3.org/2000/svg" viewBox="0 0 1160 200"><defs><style>.cls-1{fill:#231815;}</style></defs><title>KC</title><path class="cls-1" d="M62.18,61.89l47.31,71.79H74.32L42.24,84.73l-13,15.41v33.54H0V6.78H29.19v54L72,6.78h35.89Z"/><path class="cls-1" d="M204.85,111v22.66H192c-10.7,0-17.77-3.44-20.49-10.51-6,8.15-15.41,12.68-27.55,12.68-9.79,0-17.77-2.53-23.75-7.61a24.94,24.94,0,0,1-8.88-19.58c0-15.77,9.79-25.74,28.09-28.82l23.75-4c3.63-.72,5.08-2.36,5.08-5.8,0-6-4.9-10.15-13-10.15-8.71,0-14,4.17-15.41,12l-25.93-2.72c1.27-8.88,5.62-16,13.24-21.57s17.4-8.52,29.18-8.52c24.66,0,39,13.6,39,34.81v30.45c0,4.9,2,6.71,6.34,6.71Zm-54.93,4.17c10.87,0,18.85-8,18.85-18.85V92.89l-19.58,2.9c-7.25,1.27-10.87,4.17-10.87,10C138.32,111.74,142.49,115.19,149.92,115.19Z"/><path class="cls-1" d="M211.37,105.94l27.56-2.72c.9,8.16,6.16,12.51,15.59,12.51,8.52,0,12.87-3.08,12.87-8.88,0-3.81-2.9-6.16-9.43-7.43L243.1,96.7C225,93.25,214.82,83.65,214.82,69c0-8.7,3.44-15.77,10.51-21.39s16.32-8.52,28.1-8.52c23.2,0,36.8,10.33,39.52,28.64l-25.2,2.9C266.12,62.8,260.86,59,252.7,59c-7.43,0-11.78,3.08-11.78,7.62,0,4.17,2.54,6.16,9.25,7.43l16,3.08c19.4,3.63,28.64,12.69,28.64,27.37,0,19.4-14.86,31.36-40.24,31.36C228.41,135.85,212.82,124.25,211.37,105.94Z"/><path class="cls-1" d="M394.28,52.1c7.43,8.52,11.24,20.13,11.24,34.63,0,14.68-3.81,26.46-11.42,35.53Q383,135.85,364.19,135.85c-11.06,0-20.12-3.8-26.65-11.6v43H310v-126h26.1V53.37c6.53-9.42,16.32-14.32,28.1-14.32C376.7,39.05,386.85,43.4,394.28,52.1Zm-36.62,10c-12.5,0-20.48,10-20.48,25.38,0,15.23,8.16,25.56,20.48,25.56,12.15,0,19.76-10.15,19.76-25.56C377.42,72.23,369.81,62.07,357.66,62.07Z"/><path class="cls-1" d="M480.93,103.22l23.57,6c-5.26,17.4-19.94,26.64-41,26.64-29.91,0-47.31-17.76-47.31-48.22,0-14.32,4.35-25.92,12.87-35,8.7-9.07,19.94-13.6,33.9-13.6,13.23,0,23.74,4.35,31.9,13.05s12.33,20.13,12.33,34.27v8.7H443.05c1.63,12.87,8.7,19.21,20.48,19.21C472.05,114.28,477.13,111.38,480.93,103.22ZM443.41,77.48H480c-1.45-11.06-7.25-16.86-17.41-16.86C451.93,60.62,445.58,66.42,443.41,77.48Z"/><path class="cls-1" d="M522.44,133.68V41.23h26.11V54.28c5.62-8.52,13.78-13.05,23.38-13.05h8.16V66.42h-9.42C556.34,66.42,550,75.13,550,94v39.7Z"/><path class="cls-1" d="M714.06,87.27l28.46,3.45q-4.35,21.21-20.13,33.17c-10.33,8-23.38,12-38.79,12-19,0-34.08-6-45.32-17.76q-16.86-17.94-16.86-47.86c0-19.76,5.62-35.71,17-47.67S664.93,4.61,684,4.61c31.91,0,53.84,17,59.64,46.59L714.42,55c-4.53-16.67-14.87-25-30.28-25-20.84,0-33,15-33,40.24s12.33,40.25,33.18,40.25C699.55,110.48,709.7,102.5,714.06,87.27Z"/><path class="cls-1" d="M844.21,133.68H816.66V78.39c0-10.33-5.26-16.13-14.69-16.13-10.87,0-16.67,6.52-16.67,18.85v52.57H757.74V6.78H785.3v42.6c6-7.07,14.32-10.33,25-10.33,21,0,33.9,13.78,33.9,35Z"/><path class="cls-1" d="M952.44,111v22.66H939.56c-10.69,0-17.76-3.44-20.48-10.51-6,8.15-15.41,12.68-27.55,12.68-9.79,0-17.77-2.53-23.75-7.61a25,25,0,0,1-8.89-19.58c0-15.77,9.79-25.74,28.1-28.82l23.75-4c3.63-.72,5.08-2.36,5.08-5.8,0-6-4.9-10.15-13.06-10.15-8.7,0-14,4.17-15.4,12l-25.93-2.72c1.27-8.88,5.62-16,13.24-21.57s17.4-8.52,29.18-8.52c24.66,0,39,13.6,39,34.81v30.45c0,4.9,2,6.71,6.34,6.71Zm-54.93,4.17c10.87,0,18.85-8,18.85-18.85V92.89l-19.58,2.9c-7.25,1.27-10.87,4.17-10.87,10C885.91,111.74,890.08,115.19,897.51,115.19Z"/><path class="cls-1" d="M1051.78,133.68h-27.56V78.39c0-10.33-5.25-16.13-14.68-16.13-10.88,0-16.68,6.52-16.68,18.85v52.57H965.31V41.23h26.1v10c6-8,15.05-12.15,26.47-12.15,21,0,33.9,13.78,33.9,35Z"/><path class="cls-1" d="M1067,83.83c0-13.24,3.63-24.11,11.06-32.27,7.43-8.34,17-12.51,29.19-12.51,11.42,0,20.48,4,26.83,11.78v-9.6H1160V127.7c0,26.1-16.86,41.69-46.59,41.69-26.83,0-43.87-12.33-45.5-31.36l27.55-3.08c2,8.7,8.16,12.69,18.5,12.69,12.14,0,18.48-6.89,18.48-19.94V116.82c-6,7.25-14.5,10.88-25.19,10.88C1082.59,127.7,1067,110.66,1067,83.83Zm47,21c11.6,0,18.85-8.34,18.85-21.39,0-12.88-7.43-21.58-18.85-21.58-11.61,0-18.86,8.52-18.86,21.58C1095.1,96.7,1102.17,104.86,1114,104.86Z"/></svg>