<svg id="圖層_1" data-name="圖層 1" xmlns="http://www.w3.org/2000/svg" viewBox="0 0 1160 177.56"><defs><style>.cls-1{fill:#020000;}</style></defs><title>KC</title><path class="cls-1" d="M0,14.76H22v61.3L80.3,14.76h26.83L57,66.93l52,80.49H83.28l-41.55-65L22,103.08v44.34H0Z" transform="translate(0 -11.22)"/><path class="cls-1" d="M131.07,146.11a23.84,23.84,0,0,1-10.43-8.94A24.33,24.33,0,0,1,117,123.94q0-9.5,4.19-15.74T134.06,98q8.66-4,22.45-6.43L176.63,88V83.51a25.21,25.21,0,0,0-1.4-9.13,9.77,9.77,0,0,0-5-5.31q-3.63-1.77-10.15-1.77-9,0-14.07,4t-5.31,12l-19.19-1.49q1.3-15.27,11.18-22.36T161,52.39q17.7,0,26.46,7.18t8.75,21.52v42.48c0,3.11.66,5.31,2,6.61a7.65,7.65,0,0,0,5.68,2,18.15,18.15,0,0,0,3-.19l.75,15.47a51.57,51.57,0,0,1-9.88,1.12q-8.76,0-13.41-3.36a19.61,19.61,0,0,1-6.9-9.5h-.18a26.79,26.79,0,0,1-12.48,10.25,46.07,46.07,0,0,1-17.89,3.35A37,37,0,0,1,131.07,146.11Zm33.82-14.91a19.34,19.34,0,0,0,8.57-7.35A21.46,21.46,0,0,0,176.63,112v-9.88l-17.7,3.54q-11.75,2.41-16.68,6.15a12,12,0,0,0-4.93,10.06,10.2,10.2,0,0,0,4.1,8.67q4.1,3.08,11.36,3.07A29.2,29.2,0,0,0,164.89,131.2Z" transform="translate(0 -11.22)"/><path class="cls-1" d="M229.91,143.23q-11.73-6.61-15.27-18.92l16.2-8.19q4.11,9.12,11.18,13.5T259.54,134a26.78,26.78,0,0,0,10-1.68,15,15,0,0,0,6.33-4.37,9.49,9.49,0,0,0,2.14-6.06,9.11,9.11,0,0,0-2.33-6.43,17.34,17.34,0,0,0-7.26-4.19,94.8,94.8,0,0,0-13.51-3.17q-16.59-3-25.43-9.4T220.6,80a23.84,23.84,0,0,1,4.65-14.63A29.65,29.65,0,0,1,238,55.75a47,47,0,0,1,18.17-3.36q13.59,0,23.75,5a30.19,30.19,0,0,1,14.62,14.91L280,80.9a23.21,23.21,0,0,0-9.41-9.69,29.29,29.29,0,0,0-14.43-3.35q-7.27,0-11.65,2.89a8.85,8.85,0,0,0-4.38,7.73,8.37,8.37,0,0,0,2.42,6.15,18.18,18.18,0,0,0,7.46,4,108,108,0,0,0,13.6,3.08q16.58,2.79,25.24,9.41t8.67,19.28a25.68,25.68,0,0,1-4.94,15.65,30.85,30.85,0,0,1-13.79,10.25,53.53,53.53,0,0,1-20,3.54Q241.65,149.84,229.91,143.23Z" transform="translate(0 -11.22)"/><path class="cls-1" d="M314.69,54.82h19.75v11h.37A27.85,27.85,0,0,1,346,56.21a37.45,37.45,0,0,1,16.95-3.63q14,0,23.2,6.33a36.65,36.65,0,0,1,13.51,17.24A67.74,67.74,0,0,1,403.94,101a66.42,66.42,0,0,1-4.38,24.87,37.53,37.53,0,0,1-13.7,17.34q-9.32,6.42-23.29,6.43a39,39,0,0,1-16.68-3.45,25.3,25.3,0,0,1-11.08-9.41h-.37v49.56H314.69Zm62.6,69.31q6.33-8.76,6.34-23.11t-6.34-23q-6.33-8.66-18.44-8.66t-18.36,8.57q-6.24,8.56-6.24,23.1t6.24,23.2q6.24,8.67,18.36,8.66T377.29,124.13Z" transform="translate(0 -11.22)"/><path class="cls-1" d="M436.26,143.69a39,39,0,0,1-15.09-17A57.24,57.24,0,0,1,416.05,102q0-14.71,5-25.9a39.29,39.29,0,0,1,14.82-17.43q9.78-6.23,23.94-6.24,14,0,23.75,6.52A40.3,40.3,0,0,1,498.3,76.62a61.65,61.65,0,0,1,4.94,25.15v4.1h-66.7q0,12.67,6.52,20.31t18.63,7.63a25.46,25.46,0,0,0,15-4.37,27.66,27.66,0,0,0,9.6-12.76l16,7.07A42.79,42.79,0,0,1,485.91,143q-10.8,6.79-25.71,6.8Q446.24,149.84,436.26,143.69Zm46.49-52.17q-.94-10.8-6.9-17.33t-16.58-6.52q-10.06,0-15.93,6.71t-6.8,17.14Z" transform="translate(0 -11.22)"/><path class="cls-1" d="M520.75,54.82H540.5V69.53h.56a30.61,30.61,0,0,1,11.46-12q6.79-3.83,16.67-3.82a16.7,16.7,0,0,1,2.61.18l-2,19.19a42.25,42.25,0,0,0-6.52-.55q-10.62,0-16.68,6.33T540.5,96v51.43H520.75Z" transform="translate(0 -11.22)"/><path class="cls-1" d="M662.63,142.38a54.69,54.69,0,0,1-21.15-24.31q-7.26-15.73-7.26-37,0-20.51,7.26-36.34a56.23,56.23,0,0,1,21.24-24.68q14-8.85,33.54-8.85,21.79,0,36,10.62t20.4,29.43L732.78,57.8a37.09,37.09,0,0,0-12.67-19.94Q710.8,30.41,697,30.41q-13,0-22.07,6.61a40.18,40.18,0,0,0-13.6,18.08,69.58,69.58,0,0,0-4.57,26q0,16,5,27.48T676,125.89a38,38,0,0,0,21,5.87q14.36,0,23.11-7.26t13-20.87l20.12,6.15a62.5,62.5,0,0,1-11.74,21.61,52.71,52.71,0,0,1-19.37,14.44A63.8,63.8,0,0,1,696.07,151Q676.51,151,662.63,142.38Z" transform="translate(0 -11.22)"/><path class="cls-1" d="M773.21,14.76H793V66h.37a27.94,27.94,0,0,1,11.09-9.88,34.29,34.29,0,0,1,15.74-3.54q15.29,0,24.22,7.73t9,25.06v62H833.57V89.29q0-19.2-18.81-19.2a23.05,23.05,0,0,0-11.27,2.71,19.54,19.54,0,0,0-7.73,7.54A22.29,22.29,0,0,0,793,91.71v55.71H773.21Z" transform="translate(0 -11.22)"/><path class="cls-1" d="M883.79,146.11a23.81,23.81,0,0,1-10.44-8.94,24.33,24.33,0,0,1-3.63-13.23q0-9.5,4.19-15.74T886.76,98q8.67-4,22.46-6.43L929.34,88V83.51a25.21,25.21,0,0,0-1.4-9.13,9.77,9.77,0,0,0-5-5.31c-2.42-1.18-5.81-1.77-10.15-1.77q-9,0-14.07,4t-5.31,12l-19.19-1.49q1.29-15.27,11.18-22.36t28.32-7.08q17.7,0,26.45,7.18t8.76,21.52v42.48q0,4.67,2,6.61a7.65,7.65,0,0,0,5.68,2,18.15,18.15,0,0,0,3-.19l.75,15.47a51.57,51.57,0,0,1-9.88,1.12q-8.76,0-13.41-3.36a19.54,19.54,0,0,1-6.9-9.5h-.19a26.74,26.74,0,0,1-12.48,10.25,46,46,0,0,1-17.88,3.35A36.86,36.86,0,0,1,883.79,146.11ZM917.6,131.2a19.34,19.34,0,0,0,8.57-7.35A21.46,21.46,0,0,0,929.34,112v-9.88l-17.7,3.54Q899.9,108.1,895,111.83A12,12,0,0,0,890,121.89a10.22,10.22,0,0,0,4.09,8.67c2.73,2.05,6.53,3.07,11.37,3.07A29.2,29.2,0,0,0,917.6,131.2Z" transform="translate(0 -11.22)"/><path class="cls-1" d="M974.79,54.82h19.76V66h.37A28,28,0,0,1,1006,56.12a34.35,34.35,0,0,1,15.74-3.54q15.29,0,24.23,7.73t8.94,25.06v62h-19.75V89.29q0-19.2-18.81-19.2a23.12,23.12,0,0,0-11.28,2.71,19.6,19.6,0,0,0-7.73,7.54,22.39,22.39,0,0,0-2.79,11.37v55.71H974.79Z" transform="translate(0 -11.22)"/><path class="cls-1" d="M1086.59,181.05q-11.19-7.74-12.11-24.32l19.75-1.68q.38,9,6.43,13.42t16.11,4.48q8.94,0,14.17-2.9a15.86,15.86,0,0,0,7.35-8.66q2.14-5.77,2.15-14.9v-11h-.38a24.78,24.78,0,0,1-10.72,9,38.18,38.18,0,0,1-16.3,3.26q-13.59,0-22.73-6.06a36.35,36.35,0,0,1-13.6-16.77q-4.45-10.71-4.47-24.87A63.3,63.3,0,0,1,1076.62,76a37.77,37.77,0,0,1,13.42-17q9-6.33,22.07-6.33,10.07,0,17.05,3.35a26.88,26.88,0,0,1,10.9,9.13h.38V54.82H1160V148q0,19.56-10.53,30.18T1117,188.78Q1097.76,188.78,1086.59,181.05ZM1129,127.57a23.7,23.7,0,0,0,8.58-10.62,41.87,41.87,0,0,0,3.07-16.86,41.9,41.9,0,0,0-3.07-16.86A23.17,23.17,0,0,0,1129,72.7a22.68,22.68,0,0,0-12.57-3.54,22.25,22.25,0,0,0-12.48,3.54,23.38,23.38,0,0,0-8.48,10.53,41.72,41.72,0,0,0-3.08,16.86,41.69,41.69,0,0,0,3.08,16.86,23.92,23.92,0,0,0,8.48,10.62,21.77,21.77,0,0,0,12.48,3.63A22.19,22.19,0,0,0,1129,127.57Z" transform="translate(0 -11.22)"/></svg>